# xmcd
# 
# Track frame offsets:
#     150
#     11752
#     27055
#     43425
#     61387
#     75525
#     92590
#     102732
#     121220
#     143142
#     155655
# 
# Disc length: 2388
# 
# Revision: 9
# Processed by: cddbd v1.5.2PL0 Copyright (c) Steve Scherf et al.
# Submitted via: fre:ac v1.0.27
# 
DISCID=9009520b
DTITLE=Steve Earle - Guitar Town
DYEAR=1986
DGENRE=Country
TTITLE0=Guitar Town
TTITLE1=Goodbye's All We've Got Left
TTITLE2=Hillbilly Highway
TTITLE3=Good Ol' Boy (Gettin' Tough)
TTITLE4=My Old Friend the Blues
TTITLE5=Someday
TTITLE6=Think It Over
TTITLE7=Fearless Heart
TTITLE8=Little Rock 'N' Roller
TTITLE9=Down the Road
TTITLE10=State Trooper (live)
EXTD=Steve Earle - guitar town YEAR: 2002
EXTT0=
EXTT1=
EXTT2=
EXTT3=
EXTT4=
EXTT5=
EXTT6=
EXTT7=
EXTT8=
EXTT9=
EXTT10=
PLAYORDER=
